<?xml version="1.0" standalone="no"?><!DOCTYPE svg PUBLIC "-//W3C//DTD SVG 1.1//EN" "http://www.w3.org/Graphics/SVG/1.1/DTD/svg11.dtd"><svg t="1666877833814" class="icon" viewBox="0 0 1024 1024" version="1.1" xmlns="http://www.w3.org/2000/svg" p-id="1446" xmlns:xlink="http://www.w3.org/1999/xlink" width="200" height="200"><path d="M528 144c17.648 0 32 14.352 32 32h32c0-35.296-28.704-64-64-64s-64 28.704-64 64v32c0 35.296 28.704 64 64 64s64-28.704 64-64h-32c0 17.648-14.352 32-32 32s-32-14.352-32-32v-32c0-17.648 14.352-32 32-32zM704 112h-80v160h32v-64h48c8.816 0 16 7.184 16 16v48h32v-48a47.68 47.68 0 0 0-12.48-32c7.68-8.512 12.48-19.664 12.48-32 0-26.464-21.536-48-48-48z m-48 64V144h48c8.816 0 16 7.184 16 16s-7.184 16-16 16zM868.464 208h-8.928l-32-96H784v160h32v-93.408L836.464 240h55.072L912 178.592V272h32V112h-43.536zM80 336h32v32H80zM144 336h32v32H144zM208 336h32v32h-32zM832 496H576c-26.464 0-48 21.536-48 48v32c0 26.464 21.536 48 48 48v32c-26.464 0-48 21.536-48 48v32c0 26.464 21.536 48 48 48v32c-26.464 0-48 21.536-48 48v32c0 26.464 21.536 48 48 48h256c26.464 0 48-21.536 48-48v-32c0-26.464-21.536-48-48-48v-32c26.464 0 48-21.536 48-48v-32c0-26.464-21.536-48-48-48v-32c26.464 0 48-21.536 48-48v-32c0-26.464-21.536-48-48-48z m16 368v32c0 8.832-7.184 16-16 16H576c-8.816 0-16-7.168-16-16v-32c0-8.832 7.184-16 16-16h256c8.816 0 16 7.168 16 16z m-48-48H608v-32h192z m48-112v32c0 8.832-7.184 16-16 16H576c-8.816 0-16-7.168-16-16v-32c0-8.832 7.184-16 16-16h256c8.816 0 16 7.168 16 16z m-48-48H608v-32h192z m48-80c0 8.832-7.184 16-16 16H576c-8.816 0-16-7.168-16-16v-32c0-8.832 7.184-16 16-16h256c8.816 0 16 7.168 16 16z" p-id="1447" fill="#5956e9"></path><path d="M928 16H480c-44.112 0-80 35.888-80 80v176H64c-26.464 0-48 21.536-48 48v640c0 26.464 21.536 48 48 48h832c26.464 0 48-21.536 48-48V366.384A80.144 80.144 0 0 0 1008 288V96c0-44.112-35.888-80-80-80zM64 304h337.616A80.144 80.144 0 0 0 480 368h56.512l26.672 32H48v-80c0-8.816 7.184-16 16-16z m832 672H64c-8.816 0-16-7.168-16-16V432h541.84l12.064 14.48A48.56 48.56 0 0 0 639.312 464a48.64 48.64 0 0 0 45.552-32H912v528c0 8.832-7.184 16-16 16zM688 400v-32h224v32z m288-112c0 26.464-21.536 48-48 48H656v79.312a16.704 16.704 0 0 1-29.52 10.688L551.488 336H480c-26.464 0-48-21.536-48-48V96c0-26.464 21.536-48 48-48h448c26.464 0 48 21.536 48 48z" p-id="1448" fill="#5956e9"></path><path d="M288 816c97.04 0 176-78.96 176-176s-78.96-176-176-176S112 542.96 112 640s78.96 176 176 176z m0-32a143.168 143.168 0 0 1-89.776-31.6L294.624 656h136.432c-7.984 71.888-69.072 128-143.056 128z m112.4-233.776A143.296 143.296 0 0 1 431.056 624h-104.432z m-22.624-22.624L288 617.376l-89.776-89.776C222.864 507.872 254.048 496 288 496s65.136 11.872 89.776 31.6z m-202.176 22.624L265.376 640l-89.776 89.776C155.872 705.136 144 673.952 144 640s11.872-65.136 31.6-89.776zM80 848h32v32H80zM144 848h352v32H144zM80 912h96v32H80zM208 912h288v32H208z" p-id="1449" fill="#5956e9"></path></svg>