<?xml version="1.0" standalone="no"?><!DOCTYPE svg PUBLIC "-//W3C//DTD SVG 1.1//EN" "http://www.w3.org/Graphics/SVG/1.1/DTD/svg11.dtd"><svg t="1666877850988" class="icon" viewBox="0 0 1024 1024" version="1.1" xmlns="http://www.w3.org/2000/svg" p-id="1629" xmlns:xlink="http://www.w3.org/1999/xlink" width="200" height="200"><path d="M628.732 425.866H589.12c-7.378-0.156-15.302 6.532-15 15v142.268c0 8.284 6.714 15 15 15s15-6.716 15-15v-46.878c8.628-0.046 18.936-0.094 24.614-0.094 30.844 0 55.936-24.74 55.936-55.148-0.002-30.408-25.094-55.148-55.938-55.148z m0 80.296c-5.634 0-15.816 0.046-24.422 0.092-0.046-8.866-0.122-41.122-0.146-50.388h24.568c14.058 0 25.936 11.516 25.936 25.148s-11.876 25.148-25.936 25.148zM859.646 185.566l60.088-60.088A67.574 67.574 0 0 0 956 136c37.496 0 68-30.504 68-68S993.496 0 956 0s-68 30.504-68 68c0 13.328 3.87 25.76 10.52 36.266l-60.088 60.088a15 15 0 0 0 0 21.212 15 15 0 0 0 21.214 0zM956 30c20.954 0 38 17.046 38 38s-17.046 38-38 38-38-17.046-38-38 17.046-38 38-38zM692.038 678.136c41.878-45.362 64.942-104.364 64.942-166.136 0-135.082-109.896-244.978-244.978-244.978S267.022 376.918 267.022 512 376.918 756.978 512 756.978c42.874 0 85.068-11.242 122.024-32.508a15 15 0 0 0 5.518-20.482 15 15 0 0 0-20.482-5.52c-32.408 18.652-69.43 28.51-107.058 28.51-118.54 0-214.978-96.438-214.978-214.978S393.46 297.022 512 297.022 726.978 393.46 726.978 512c0 54.208-20.238 105.984-56.984 145.788a15 15 0 1 0 22.044 20.348z m181.292 35.318l-37.282-37.282c-1.58-1.578-1.95-4.05-0.922-6.148a358.804 358.804 0 0 0 17.096-41.284c0.756-2.206 2.764-3.688 4.996-3.688h52.728c19.436 0 35.246-15.812 35.246-35.248v-155.606c0-19.436-15.81-35.248-35.246-35.248h-52.728c-2.232 0-4.24-1.482-4.996-3.688a358.656 358.656 0 0 0-17.096-41.284c-1.028-2.1-0.658-4.572 0.924-6.152l37.28-37.28c13.74-13.744 13.74-36.104 0-49.846l-110.032-110.03c-13.742-13.742-36.102-13.738-49.848 0l-37.28 37.28c-1.576 1.58-4.048 1.95-6.148 0.922a358.194 358.194 0 0 0-41.286-17.096c-2.208-0.756-3.69-2.764-3.69-4.996V114.052c0-19.436-15.81-35.248-35.246-35.248h-45.942c-8.286 0-15 6.716-15 15s6.714 15 15 15H589.8a5.254 5.254 0 0 1 5.246 5.248V166.78c0 15.05 9.63 28.462 23.962 33.376a328.604 328.604 0 0 1 37.82 15.662c13.616 6.664 29.908 3.988 40.554-6.654l37.278-37.28a5.254 5.254 0 0 1 7.422 0l110.03 110.028a5.254 5.254 0 0 1 0 7.422l-37.278 37.278c-10.644 10.642-13.32 26.938-6.656 40.554a329.188 329.188 0 0 1 15.662 37.822c4.912 14.332 18.324 23.962 33.376 23.962h52.728a5.254 5.254 0 0 1 5.246 5.248v155.606a5.254 5.254 0 0 1-5.246 5.248h-52.728c-15.05 0-28.462 9.63-33.376 23.962a329.336 329.336 0 0 1-15.662 37.822c-6.664 13.616-3.988 29.912 6.654 40.552l37.28 37.28a5.252 5.252 0 0 1 0 7.42l-110.028 110.028a5.254 5.254 0 0 1-7.422 0l-37.28-37.28c-10.646-10.644-26.946-13.316-40.554-6.654a328.96 328.96 0 0 1-37.82 15.662c-14.332 4.912-23.962 18.324-23.962 33.376v52.728a5.254 5.254 0 0 1-5.246 5.248h-155.606a5.254 5.254 0 0 1-5.246-5.248V857.22c0-15.05-9.63-28.462-23.962-33.376a328.604 328.604 0 0 1-37.82-15.662c-13.616-6.664-29.908-3.988-40.554 6.654l-37.278 37.28a5.254 5.254 0 0 1-7.422 0l-110.03-110.028a5.254 5.254 0 0 1 0-7.422l37.278-37.278c10.644-10.642 13.32-26.938 6.656-40.554a329.188 329.188 0 0 1-15.662-37.822c-4.912-14.332-18.324-23.962-33.376-23.962H114.052a5.254 5.254 0 0 1-5.246-5.248v-155.606a5.254 5.254 0 0 1 5.246-5.248H166.78c15.05 0 28.462-9.63 33.376-23.962a329.336 329.336 0 0 1 15.662-37.822c6.664-13.616 3.988-29.912-6.654-40.552l-37.28-37.28a5.252 5.252 0 0 1 0-7.42l110.028-110.028a5.254 5.254 0 0 1 7.422 0l37.28 37.28c10.646 10.644 26.946 13.316 40.554 6.654a328.96 328.96 0 0 1 37.82-15.662c14.332-4.912 23.962-18.324 23.962-33.376V114.052a5.254 5.254 0 0 1 5.246-5.248h39.664c8.286 0 15-6.716 15-15s-6.714-15-15-15h-39.664c-19.436 0-35.246 15.812-35.246 35.248V166.78c0 2.232-1.482 4.24-3.69 4.996a359.054 359.054 0 0 0-41.286 17.096c-2.096 1.028-4.57 0.658-6.148-0.922l-37.282-37.282c-13.742-13.742-36.102-13.738-49.848 0l-110.03 110.03c-13.74 13.742-13.74 36.102 0 49.846l37.282 37.282c1.58 1.578 1.95 4.05 0.922 6.148a358.804 358.804 0 0 0-17.096 41.284c-0.756 2.206-2.764 3.688-4.996 3.688H114.052c-19.436 0-35.246 15.812-35.246 35.248V589.8c0 19.436 15.81 35.248 35.246 35.248H166.78c2.232 0 4.24 1.482 4.996 3.688a358.656 358.656 0 0 0 17.096 41.284c1.028 2.1 0.658 4.572-0.924 6.152l-37.28 37.28c-13.74 13.744-13.74 36.104 0 49.846l110.032 110.03c13.744 13.742 36.104 13.742 49.848 0l37.28-37.28c1.578-1.578 4.052-1.948 6.148-0.922a358.194 358.194 0 0 0 41.286 17.096c2.208 0.756 3.69 2.764 3.69 4.996v52.728c0 19.436 15.81 35.248 35.246 35.248h155.606c19.436 0 35.246-15.812 35.246-35.248v-52.728c0-2.232 1.482-4.24 3.69-4.996a359.054 359.054 0 0 0 41.286-17.096c2.1-1.028 4.572-0.656 6.148 0.922l37.282 37.282c13.744 13.742 36.104 13.742 49.848 0l110.03-110.03c13.736-13.744 13.736-36.104-0.004-49.846z m-708.976 124.98L104.266 898.52A67.59 67.59 0 0 0 68 888c-37.496 0-68 30.504-68 68s30.504 68 68 68 68-30.504 68-68c0-13.328-3.87-25.76-10.52-36.266l60.088-60.088a15 15 0 0 0-21.214-21.212zM68 994c-20.954 0-38-17.046-38-38s17.046-38 38-38 38 17.046 38 38-17.046 38-38 38z m888-106a67.59 67.59 0 0 0-36.266 10.52l-60.088-60.088a15 15 0 0 0-21.214 21.212l60.088 60.088A67.6 67.6 0 0 0 888 956c0 37.496 30.504 68 68 68s68-30.504 68-68-30.504-68-68-68z m0 106c-20.954 0-38-17.046-38-38s17.046-38 38-38 38 17.046 38 38-17.046 38-38 38zM555.16 477.84c0-28.658-24.254-51.974-54.066-51.974h-37.804l-0.024 0.002-0.024-0.002a15 15 0 0 0-15 15v142.268c0 8.284 6.714 15 15 15s15-6.716 15-15v-47.648l50.658 57.558a15.002 15.002 0 0 0 22.52-19.82l-39.188-44.526c24.486-4.95 42.928-25.87 42.928-50.858z m-54.066 21.974c-5.23 0-14.566 0.04-22.628 0.082-0.042-7.904-0.106-35.76-0.128-44.028h22.758c13.044 0 24.066 10.062 24.066 21.974s-11.024 21.972-24.068 21.972zM68 136c13.328 0 25.76-3.87 36.266-10.52l60.088 60.088a15 15 0 0 0 21.214 0 15 15 0 0 0 0-21.212L125.48 104.266A67.59 67.59 0 0 0 136 68C136 30.504 105.496 0 68 0S0 30.504 0 68s30.504 68 68 68z m0-106c20.954 0 38 17.046 38 38s-17.046 38-38 38-38-17.046-38-38 17.046-38 38-38z m345.732 426.516c8.286 0 15-6.716 15-15s-6.714-15-15-15h-59.4a15 15 0 0 0-15 15v140.968a15 15 0 0 0 15 15h59.4c8.286 0 15-6.716 15-15s-6.714-15-15-15h-44.4V527h40.02c8.286 0 15-6.716 15-15s-6.714-15-15-15h-40.02v-40.484z" p-id="1630" fill="#5956e9"></path></svg>