<?xml version="1.0" standalone="no"?><!DOCTYPE svg PUBLIC "-//W3C//DTD SVG 1.1//EN" "http://www.w3.org/Graphics/SVG/1.1/DTD/svg11.dtd"><svg t="1666877857877" class="icon" viewBox="0 0 1024 1024" version="1.1" xmlns="http://www.w3.org/2000/svg" p-id="1811" xmlns:xlink="http://www.w3.org/1999/xlink" width="200" height="200"><path d="M384 64C172.224 64 0 207.552 0 384c0 93.248 47.616 179.776 131.648 241.216l-32.256 64.512c-6.016 11.968-3.904 26.496 5.312 36.224A32.034 32.034 0 0 0 128 736c4.224 0 8.512-0.832 12.608-2.56l113.152-48.448c53.056 16.064 109.632 20.928 166.4 17.664 17.664-0.896 31.232-16 30.272-33.664-0.96-17.728-17.728-32.192-33.664-30.208-52.992 2.688-105.6-1.984-154.496-18.304-7.424-2.432-15.488-2.048-22.72 0.96l-43.84 18.816 5.76-11.584c7.36-14.72 2.304-32.704-11.712-41.408C109.824 537.344 64 463.296 64 384c0-141.184 143.552-256 320-256s320 114.816 320 256c0 9.6-0.448 18.624-2.048 27.648-3.136 17.408 8.512 34.048 25.856 37.12 17.664 3.264 33.984-8.448 37.12-25.856C767.168 410.176 768 397.44 768 384c0-176.448-172.224-320-384-320z" p-id="1812" fill="#5956e9"></path><path d="M915.52 831.424C983.936 783.04 1024 713.28 1024 640c0-141.184-143.552-256-320-256s-320 114.816-320 256c0 156.352 174.08 282.56 377.856 251.584l153.536 65.856c4.032 1.664 8.384 2.56 12.608 2.56 8.64 0 17.152-3.52 23.296-10.112 9.28-9.728 11.392-24.192 5.376-36.224l-41.152-82.24z m-57.408-39.232c-14.72 8.448-20.288 26.88-12.736 42.048l14.912 29.952-81.792-35.136a32.88 32.88 0 0 0-12.608-2.56c-1.856 0-3.648 0.128-5.44 0.448C740.8 830.4 722.304 832 704 832c-141.184 0-256-86.144-256-192s114.816-192 256-192 256 86.144 256 192c0 59.648-37.12 115.136-101.888 152.192z" p-id="1813" fill="#5956e9"></path><path d="M257.28 256h-0.64c-17.664 0-31.68 14.336-31.68 32s14.656 32 32.32 32 32-14.336 32-32-14.336-32-32-32z" p-id="1814" fill="#5956e9"></path><path d="M513.28 256h-0.64c-17.664 0-31.68 14.336-31.68 32s14.656 32 32.32 32 32-14.336 32-32-14.336-32-32-32z" p-id="1815" fill="#5956e9"></path><path d="M609.28 544h-0.64c-17.728 0-31.68 14.336-31.68 32s14.656 32 32.32 32 32-14.336 32-32-14.336-32-32-32z" p-id="1816" fill="#5956e9"></path><path d="M801.28 544h-0.64c-17.664 0-31.68 14.336-31.68 32s14.72 32 32.32 32c17.664 0 32-14.336 32-32s-14.336-32-32-32z" p-id="1817" fill="#5956e9"></path></svg>